<?xml version="1.0" encoding="utf-8"?>
<svg xmlns="http://www.w3.org/2000/svg" version="1.1" width="1066.381987474562" height="1066.381987474562">
<circle stroke="black" stroke-width="2" cx="774.6506214679338" cy="439.8550754039518" r="1"/>
<circle stroke="grey" stroke-width="1" fill="none" cx="774.6506214679338" cy="439.8550754039518" r="22.127329158187376"/>
<circle stroke="black" stroke-width="2" cx="790.178570201586" cy="137.06004481822978" r="1"/>
<circle stroke="grey" stroke-width="1" fill="none" cx="790.178570201586" cy="137.06004481822978" r="22.127329158187376"/>
<circle stroke="black" stroke-width="2" cx="362.38354136275854" cy="639.3892350320042" r="1"/>
<circle stroke="grey" stroke-width="1" fill="none" cx="362.38354136275854" cy="639.3892350320042" r="22.127329158187376"/>
<circle stroke="black" stroke-width="2" cx="936.1413059997806" cy="110.66252777847431" r="1"/>
<circle stroke="grey" stroke-width="1" fill="none" cx="936.1413059997806" cy="110.66252777847431" r="22.127329158187376"/>
<circle stroke="black" stroke-width="2" cx="799.4953403734544" cy="398.7060040392763" r="1"/>
<circle stroke="grey" stroke-width="1" fill="none" cx="799.4953403734544" cy="398.7060040392763" r="22.127329158187376"/>
<circle stroke="black" stroke-width="2" cx="852.2903744529652" cy="266.7184281572695" r="1"/>
<circle stroke="grey" stroke-width="1" fill="none" cx="852.2903744529652" cy="266.7184281572695" r="22.127329158187376"/>
<circle stroke="black" stroke-width="2" cx="364.7127339057256" cy="499.6376824539787" r="1"/>
<circle stroke="grey" stroke-width="1" fill="none" cx="364.7127339057256" cy="499.6376824539787" r="22.127329158187376"/>
<circle stroke="black" stroke-width="2" cx="241.26552912846972" cy="858.333334070911" r="1"/>
<circle stroke="grey" stroke-width="1" fill="none" cx="241.26552912846972" cy="858.333334070911" r="22.127329158187376"/>
<circle stroke="black" stroke-width="2" cx="403.5326080690487" cy="533.0227771226354" r="1"/>
<circle stroke="grey" stroke-width="1" fill="none" cx="403.5326080690487" cy="533.0227771226354" r="22.127329158187376"/>
<circle stroke="black" stroke-width="2" cx="231.2111828707902" cy="871.1568340509986" r="1"/>
<circle stroke="grey" stroke-width="1" fill="none" cx="231.2111828707902" cy="871.1568340509986" r="22.127329158187376"/>
<circle stroke="black" stroke-width="2" cx="332.7510367503869" cy="535.3519696656025" r="1"/>
<circle stroke="grey" stroke-width="1" fill="none" cx="332.7510367503869" cy="535.3519696656025" r="22.127329158187376"/>
<circle stroke="black" stroke-width="2" cx="346.07919356198886" cy="596.6873701914791" r="1"/>
<circle stroke="grey" stroke-width="1" fill="none" cx="346.07919356198886" cy="596.6873701914791" r="22.127329158187376"/>
<circle stroke="black" stroke-width="2" cx="440.7996887565222" cy="528.3643920367012" r="1"/>
<circle stroke="grey" stroke-width="1" fill="none" cx="440.7996887565222" cy="528.3643920367012" r="22.127329158187376"/>
<circle stroke="black" stroke-width="2" cx="648.8742241477108" cy="398.7060040392763" r="1"/>
<circle stroke="grey" stroke-width="1" fill="none" cx="648.8742241477108" cy="398.7060040392763" r="22.127329158187376"/>
<circle stroke="black" stroke-width="2" cx="815.799688174224" cy="345.91097461815065" r="1"/>
<circle stroke="grey" stroke-width="1" fill="none" cx="815.799688174224" cy="345.91097461815065" r="22.127329158187376"/>
<circle stroke="black" stroke-width="2" cx="330.55124482833673" cy="535.3519696656025" r="1"/>
<circle stroke="grey" stroke-width="1" fill="none" cx="330.55124482833673" cy="535.3519696656025" r="22.127329158187376"/>
<circle stroke="black" stroke-width="2" cx="216.77018910439426" cy="878.4937905613449" r="1"/>
<circle stroke="grey" stroke-width="1" fill="none" cx="216.77018910439426" cy="878.4937905613449" r="22.127329158187376"/>
<circle stroke="black" stroke-width="2" cx="647.3214306718611" cy="446.84265303285304" r="1"/>
<circle stroke="grey" stroke-width="1" fill="none" cx="647.3214306718611" cy="446.84265303285304" r="22.127329158187376"/>
<circle stroke="black" stroke-width="2" cx="928.3773293037619" cy="34.899069821585364" r="1"/>
<circle stroke="grey" stroke-width="1" fill="none" cx="928.3773293037619" cy="34.899069821585364" r="22.127329158187376"/>
<circle stroke="black" stroke-width="2" cx="831.3276415662614" cy="193.73706025817216" r="1"/>
<circle stroke="grey" stroke-width="1" fill="none" cx="831.3276415662614" cy="193.73706025817216" r="22.127329158187376"/>
<circle stroke="black" stroke-width="2" cx="721.0791929796907" cy="469.3581793954065" r="1"/>
<circle stroke="grey" stroke-width="1" fill="none" cx="721.0791929796907" cy="469.3581793954065" r="22.127329158187376"/>
<circle stroke="black" stroke-width="2" cx="976.5139736389533" cy="93.5817809105872" r="1"/>
<circle stroke="grey" stroke-width="1" fill="none" cx="976.5139736389533" cy="93.5817809105872" r="22.127329158187376"/>
<circle stroke="black" stroke-width="2" cx="870.3286756671911" cy="33.19099373728106" r="1"/>
<circle stroke="grey" stroke-width="1" fill="none" cx="870.3286756671911" cy="33.19099373728106" r="22.127329158187376"/>
<circle stroke="black" stroke-width="2" cx="882.44047689062" cy="253.51967196658444" r="1"/>
<circle stroke="grey" stroke-width="1" fill="none" cx="882.44047689062" cy="253.51967196658444" r="22.127329158187376"/>
<circle stroke="black" stroke-width="2" cx="750.9187395172065" cy="450.71169805790095" r="1"/>
<circle stroke="grey" stroke-width="1" fill="none" cx="750.9187395172065" cy="450.71169805790095" r="22.127329158187376"/>
<circle stroke="black" stroke-width="2" cx="717.1972069608739" cy="408.0227742111447" r="1"/>
<circle stroke="grey" stroke-width="1" fill="none" cx="717.1972069608739" cy="408.0227742111447" r="22.127329158187376"/>
<circle stroke="black" stroke-width="2" cx="1002.9114906787089" cy="78.83023124405248" r="1"/>
<circle stroke="grey" stroke-width="1" fill="none" cx="1002.9114906787089" cy="78.83023124405248" r="22.127329158187376"/>
<circle stroke="black" stroke-width="2" cx="863.1599381006833" cy="98.24016599652138" r="1"/>
<circle stroke="grey" stroke-width="1" fill="none" cx="863.1599381006833" cy="98.24016599652138" r="22.127329158187376"/>
<circle stroke="black" stroke-width="2" cx="723.4083855226578" cy="397.9296096305441" r="1"/>
<circle stroke="grey" stroke-width="1" fill="none" cx="723.4083855226578" cy="397.9296096305441" r="22.127329158187376"/>
<circle stroke="black" stroke-width="2" cx="833.6568341092285" cy="331.15942029323065" r="1"/>
<circle stroke="grey" stroke-width="1" fill="none" cx="833.6568341092285" cy="331.15942029323065" r="22.127329158187376"/>
<circle stroke="black" stroke-width="2" cx="315.7996905034167" cy="619.2029012124178" r="1"/>
<circle stroke="grey" stroke-width="1" fill="none" cx="315.7996905034167" cy="619.2029012124178" r="22.127329158187376"/>
<circle stroke="black" stroke-width="2" cx="735.8307473046107" cy="345.91097461815065" r="1"/>
<circle stroke="grey" stroke-width="1" fill="none" cx="735.8307473046107" cy="345.91097461815065" r="22.127329158187376"/>
<circle stroke="black" stroke-width="2" cx="849.1847828428808" cy="219.35817823081015" r="1"/>
<circle stroke="grey" stroke-width="1" fill="none" cx="849.1847828428808" cy="219.35817823081015" r="22.127329158187376"/>
<circle stroke="black" stroke-width="2" cx="794.8369552875201" cy="363.76811589476995" r="1"/>
<circle stroke="grey" stroke-width="1" fill="none" cx="794.8369552875201" cy="363.76811589476995" r="22.127329158187376"/>
<circle stroke="black" stroke-width="2" cx="853.0667688616975" cy="293.8923396057572" r="1"/>
<circle stroke="grey" stroke-width="1" fill="none" cx="853.0667688616975" cy="293.8923396057572" r="22.127329158187376"/>
<circle stroke="black" stroke-width="2" cx="838.3152191951627" cy="86.59420328168592" r="1"/>
<circle stroke="grey" stroke-width="1" fill="none" cx="838.3152191951627" cy="86.59420328168592" r="22.127329158187376"/>
<circle stroke="black" stroke-width="2" cx="646.5450316047437" cy="498.0848889781291" r="1"/>
<circle stroke="grey" stroke-width="1" fill="none" cx="646.5450316047437" cy="498.0848889781291" r="22.127329158187376"/>
<circle stroke="black" stroke-width="2" cx="665.1785719484805" cy="406.46998073529505" r="1"/>
<circle stroke="grey" stroke-width="1" fill="none" cx="665.1785719484805" cy="406.46998073529505" r="22.127329158187376"/>
<circle stroke="black" stroke-width="2" cx="233.43685212199222" cy="863.1469971069145" r="1"/>
<circle stroke="grey" stroke-width="1" fill="none" cx="233.43685212199222" cy="863.1469971069145" r="22.127329158187376"/>
<circle stroke="black" stroke-width="2" cx="379.46428823064565" cy="610.6625254492816" r="1"/>
<circle stroke="grey" stroke-width="1" fill="none" cx="379.46428823064565" cy="610.6625254492816" r="22.127329158187376"/>
<circle stroke="black" stroke-width="2" cx="450.892857995508" cy="551.6563174663721" r="1"/>
<circle stroke="grey" stroke-width="1" fill="none" cx="450.892857995508" cy="551.6563174663721" r="22.127329158187376"/>
<circle stroke="black" stroke-width="2" cx="769.2158373148822" cy="428.2091126891163" r="1"/>
<circle stroke="grey" stroke-width="1" fill="none" cx="769.2158373148822" cy="428.2091126891163" r="22.127329158187376"/>
<circle stroke="black" stroke-width="2" cx="660.5201868625462" cy="428.2091126891163" r="1"/>
<circle stroke="grey" stroke-width="1" fill="none" cx="660.5201868625462" cy="428.2091126891163" r="22.127329158187376"/>
<circle stroke="black" stroke-width="2" cx="617.8183220220211" cy="480.2277430431245" r="1"/>
<circle stroke="grey" stroke-width="1" fill="none" cx="617.8183220220211" cy="480.2277430431245" r="22.127329158187376"/>
<circle stroke="black" stroke-width="2" cx="217.26190494214012" cy="878.4808495675762" r="1"/>
<circle stroke="grey" stroke-width="1" fill="none" cx="217.26190494214012" cy="878.4808495675762" r="22.127329158187376"/>
<circle stroke="black" stroke-width="2" cx="827.4068325661385" cy="302.8079715794905" r="1"/>
<circle stroke="grey" stroke-width="1" fill="none" cx="827.4068325661385" cy="302.8079715794905" r="22.127329158187376"/>
<circle stroke="black" stroke-width="2" cx="821.2344723272757" cy="151.8115944847645" r="1"/>
<circle stroke="grey" stroke-width="1" fill="none" cx="821.2344723272757" cy="151.8115944847645" r="22.127329158187376"/>
<circle stroke="black" stroke-width="2" cx="756.4699786390213" cy="444.13819962090344" r="1"/>
<circle stroke="grey" stroke-width="1" fill="none" cx="756.4699786390213" cy="444.13819962090344" r="22.127329158187376"/>
<circle stroke="black" stroke-width="2" cx="791.7313683358209" cy="168.11594228553417" r="1"/>
<circle stroke="grey" stroke-width="1" fill="none" cx="791.7313683358209" cy="168.11594228553417" r="22.127329158187376"/>
<circle stroke="black" stroke-width="2" cx="763.7810578202158" cy="411.12836582122924" r="1"/>
<circle stroke="grey" stroke-width="1" fill="none" cx="763.7810578202158" cy="411.12836582122924" r="22.127329158187376"/>
<circle stroke="black" stroke-width="2" cx="363.93633483860816" cy="523.706006950767" r="1"/>
<circle stroke="grey" stroke-width="1" fill="none" cx="363.93633483860816" cy="523.706006950767" r="22.127329158187376"/>
<circle stroke="black" stroke-width="2" cx="33.19099373728106" cy="965.4761910473972" r="1"/>
<circle stroke="grey" stroke-width="1" fill="none" cx="33.19099373728106" cy="965.4761910473972" r="22.127329158187376"/>
<circle stroke="black" stroke-width="2" cx="761.4518652772487" cy="408.7991732782621" r="1"/>
<circle stroke="grey" stroke-width="1" fill="none" cx="761.4518652772487" cy="408.7991732782621" r="22.127329158187376"/>
<circle stroke="black" stroke-width="2" cx="551.8245364102104" cy="496.5320908438942" r="1"/>
<circle stroke="grey" stroke-width="1" fill="none" cx="551.8245364102104" cy="496.5320908438942" r="22.127329158187376"/>
<circle stroke="black" stroke-width="2" cx="641.1102474516921" cy="385.5072478485912" r="1"/>
<circle stroke="grey" stroke-width="1" fill="none" cx="641.1102474516921" cy="385.5072478485912" r="22.127329158187376"/>
<circle stroke="black" stroke-width="2" cx="819.681678851426" cy="386.2836469157087" r="1"/>
<circle stroke="grey" stroke-width="1" fill="none" cx="819.681678851426" cy="386.2836469157087" r="22.127329158187376"/>
<circle stroke="black" stroke-width="2" cx="818.73706084047" cy="320.4968939122719" r="1"/>
<circle stroke="grey" stroke-width="1" fill="none" cx="818.73706084047" cy="320.4968939122719" r="22.127329158187376"/>
<circle stroke="black" stroke-width="2" cx="784.7437907069195" cy="407.2463798024125" r="1"/>
<circle stroke="grey" stroke-width="1" fill="none" cx="784.7437907069195" cy="407.2463798024125" r="22.127329158187376"/>
<circle stroke="black" stroke-width="2" cx="524.6506203033375" cy="512.0600442359316" r="1"/>
<circle stroke="grey" stroke-width="1" fill="none" cx="524.6506203033375" cy="512.0600442359316" r="22.127329158187376"/>
<circle stroke="black" stroke-width="2" cx="360.0543488197914" cy="578.8302289148598" r="1"/>
<circle stroke="grey" stroke-width="1" fill="none" cx="360.0543488197914" cy="578.8302289148598" r="22.127329158187376"/>
<circle stroke="black" stroke-width="2" cx="860.8307455577162" cy="77.27743310981755" r="1"/>
<circle stroke="grey" stroke-width="1" fill="none" cx="860.8307455577162" cy="77.27743310981755" r="22.127329158187376"/>
<circle stroke="black" stroke-width="2" cx="629.4642847368566" cy="425.87992014614923" r="1"/>
<circle stroke="grey" stroke-width="1" fill="none" cx="629.4642847368566" cy="425.87992014614923" r="22.127329158187376"/>
<circle stroke="black" stroke-width="2" cx="498.2531079219673" cy="526.0351994937341" r="1"/>
<circle stroke="grey" stroke-width="1" fill="none" cx="498.2531079219673" cy="526.0351994937341" r="22.127329158187376"/>
<circle stroke="black" stroke-width="2" cx="992.818321439723" cy="85.81780887295376" r="1"/>
<circle stroke="grey" stroke-width="1" fill="none" cx="992.818321439723" cy="85.81780887295376" r="22.127329158187376"/>
<circle stroke="black" stroke-width="2" cx="747.4767100194462" cy="478.6749495672749" r="1"/>
<circle stroke="grey" stroke-width="1" fill="none" cx="747.4767100194462" cy="478.6749495672749" r="22.127329158187376"/>
<circle stroke="black" stroke-width="2" cx="754.7360252255652" cy="454.39958780372723" r="1"/>
<circle stroke="grey" stroke-width="1" fill="none" cx="754.7360252255652" cy="454.39958780372723" r="22.127329158187376"/>
<circle stroke="black" stroke-width="2" cx="669.8369570344146" cy="418.892342517248" r="1"/>
<circle stroke="grey" stroke-width="1" fill="none" cx="669.8369570344146" cy="418.892342517248" r="22.127329158187376"/>
<circle stroke="black" stroke-width="2" cx="441.5760878236396" cy="508.17805355872963" r="1"/>
<circle stroke="grey" stroke-width="1" fill="none" cx="441.5760878236396" cy="508.17805355872963" r="22.127329158187376"/>
<circle stroke="black" stroke-width="2" cx="442.3524868907571" cy="508.95445262584707" r="1"/>
<circle stroke="grey" stroke-width="1" fill="none" cx="442.3524868907571" cy="508.95445262584707" r="22.127329158187376"/>
<circle stroke="black" stroke-width="2" cx="381.7934807736127" cy="514.3892367788986" r="1"/>
<circle stroke="grey" stroke-width="1" fill="none" cx="381.7934807736127" cy="514.3892367788986" r="22.127329158187376"/>
<circle stroke="black" stroke-width="2" cx="849.1847828428808" cy="221.68737077377727" r="1"/>
<circle stroke="grey" stroke-width="1" fill="none" cx="849.1847828428808" cy="221.68737077377727" r="22.127329158187376"/>
<circle stroke="black" stroke-width="2" cx="367.81832551581016" cy="650.2587986797222" r="1"/>
<circle stroke="grey" stroke-width="1" fill="none" cx="367.81832551581016" cy="650.2587986797222" r="22.127329158187376"/>
<circle stroke="black" stroke-width="2" cx="523.8742258946053" cy="502.74327406406326" r="1"/>
<circle stroke="grey" stroke-width="1" fill="none" cx="523.8742258946053" cy="502.74327406406326" r="22.127329158187376"/>
<circle stroke="black" stroke-width="2" cx="852.2903744529652" cy="190.6314733064729" r="1"/>
<circle stroke="grey" stroke-width="1" fill="none" cx="852.2903744529652" cy="190.6314733064729" r="22.127329158187376"/>
<circle stroke="black" stroke-width="2" cx="469.3969977183272" cy="519.1770178273648" r="1"/>
<circle stroke="grey" stroke-width="1" fill="none" cx="469.3969977183272" cy="519.1770178273648" r="22.127329158187376"/>
<circle stroke="black" stroke-width="2" cx="640.3338530429598" cy="452.2774325275194" r="1"/>
<circle stroke="grey" stroke-width="1" fill="none" cx="640.3338530429598" cy="452.2774325275194" r="22.127329158187376"/>
<circle stroke="black" stroke-width="2" cx="1033.1909937372811" cy="49.32712259421245" r="1"/>
<circle stroke="grey" stroke-width="1" fill="none" cx="1033.1909937372811" cy="49.32712259421245" r="22.127329158187376"/>
<circle stroke="black" stroke-width="2" cx="521.5450333516382" cy="514.3892367788986" r="1"/>
<circle stroke="grey" stroke-width="1" fill="none" cx="521.5450333516382" cy="514.3892367788986" r="22.127329158187376"/>
<circle stroke="black" stroke-width="2" cx="606.1723593071857" cy="450.7246390516698" r="1"/>
<circle stroke="grey" stroke-width="1" fill="none" cx="606.1723593071857" cy="450.7246390516698" r="22.127329158187376"/>
<circle stroke="black" stroke-width="2" cx="712.5388218749397" cy="387.0600413244408" r="1"/>
<circle stroke="grey" stroke-width="1" fill="none" cx="712.5388218749397" cy="387.0600413244408" r="22.127329158187376"/>
<circle stroke="black" stroke-width="2" cx="217.06780866914977" cy="879.943065403815" r="1"/>
<circle stroke="grey" stroke-width="1" fill="none" cx="217.06780866914977" cy="879.943065403815" r="22.127329158187376"/>
<circle stroke="black" stroke-width="2" cx="671.3897505102643" cy="481.7805411773594" r="1"/>
<circle stroke="grey" stroke-width="1" fill="none" cx="671.3897505102643" cy="481.7805411773594" r="22.127329158187376"/>
<circle stroke="black" stroke-width="2" cx="685.3649057680668" cy="471.6873719383736" r="1"/>
<circle stroke="grey" stroke-width="1" fill="none" cx="685.3649057680668" cy="471.6873719383736" r="22.127329158187376"/>
<circle stroke="black" stroke-width="2" cx="591.420809640651" cy="487.99171973914326" r="1"/>
<circle stroke="grey" stroke-width="1" fill="none" cx="591.420809640651" cy="487.99171973914326" r="22.127329158187376"/>
<circle stroke="black" stroke-width="2" cx="483.5015535970473" cy="484.1097337203265" r="1"/>
<circle stroke="grey" stroke-width="1" fill="none" cx="483.5015535970473" cy="484.1097337203265" r="22.127329158187376"/>
<circle stroke="black" stroke-width="2" cx="504.46428648375115" cy="448.39544650870266" r="1"/>
<circle stroke="grey" stroke-width="1" fill="none" cx="504.46428648375115" cy="448.39544650870266" r="22.127329158187376"/>
<circle stroke="black" stroke-width="2" cx="476.51397596814604" cy="449.17184557582016" r="1"/>
<circle stroke="grey" stroke-width="1" fill="none" cx="476.51397596814604" cy="449.17184557582016" r="22.127329158187376"/>
<circle stroke="black" stroke-width="2" cx="440.7996887565222" cy="559.4202895040056" r="1"/>
<circle stroke="grey" stroke-width="1" fill="none" cx="440.7996887565222" cy="559.4202895040056" r="22.127329158187376"/>
<circle stroke="black" stroke-width="2" cx="801.0740158368411" cy="298.07194984771434" r="1"/>
<circle stroke="grey" stroke-width="1" fill="none" cx="801.0740158368411" cy="298.07194984771434" r="22.127329158187376"/>
<circle stroke="black" stroke-width="2" cx="368.59471992454235" cy="523.706006950767" r="1"/>
<circle stroke="grey" stroke-width="1" fill="none" cx="368.59471992454235" cy="523.706006950767" r="22.127329158187376"/>
<circle stroke="black" stroke-width="2" cx="499.02950233069953" cy="515.9420302547484" r="1"/>
<circle stroke="grey" stroke-width="1" fill="none" cx="499.02950233069953" cy="515.9420302547484" r="22.127329158187376"/>
<circle stroke="black" stroke-width="2" cx="783.9673916398021" cy="343.5817820751835" r="1"/>
<circle stroke="grey" stroke-width="1" fill="none" cx="783.9673916398021" cy="343.5817820751835" r="22.127329158187376"/>
<circle stroke="black" stroke-width="2" cx="842.1972052139795" cy="241.09731018463145" r="1"/>
<circle stroke="grey" stroke-width="1" fill="none" cx="842.1972052139795" cy="241.09731018463145" r="22.127329158187376"/>
<circle stroke="black" stroke-width="2" cx="576.6692553157309" cy="493.4265038921949" r="1"/>
<circle stroke="grey" stroke-width="1" fill="none" cx="576.6692553157309" cy="493.4265038921949" r="22.127329158187376"/>
<circle stroke="black" stroke-width="2" cx="325.11646067528505" cy="778.3643885429123" r="1"/>
<circle stroke="grey" stroke-width="1" fill="none" cx="325.11646067528505" cy="778.3643885429123" r="22.127329158187376"/>
<circle stroke="black" stroke-width="2" cx="701.6692535688364" cy="388.61283945867575" r="1"/>
<circle stroke="grey" stroke-width="1" fill="none" cx="701.6692535688364" cy="388.61283945867575" r="22.127329158187376"/>
<circle stroke="black" stroke-width="2" cx="830.5512424991441" cy="170.44513482850124" r="1"/>
<circle stroke="grey" stroke-width="1" fill="none" cx="830.5512424991441" cy="170.44513482850124" r="22.127329158187376"/>
<circle stroke="black" stroke-width="2" cx="297.16615015967994" cy="778.3643885429123" r="1"/>
<circle stroke="grey" stroke-width="1" fill="none" cx="297.16615015967994" cy="778.3643885429123" r="22.127329158187376"/>
<circle stroke="black" stroke-width="2" cx="304.9301268556987" cy="561.7494820469727" r="1"/>
<circle stroke="grey" stroke-width="1" fill="none" cx="304.9301268556987" cy="561.7494820469727" r="22.127329158187376"/>
<circle stroke="black" stroke-width="2" cx="818.9052797843086" cy="407.2463798024125" r="1"/>
<circle stroke="grey" stroke-width="1" fill="none" cx="818.9052797843086" cy="407.2463798024125" r="22.127329158187376"/>
<circle stroke="darkblue" stroke-width="4" cx="660.5201868625462" cy="428.2091126891163" r="1"/>
<circle stroke="blue" stroke-width="1" fill="none" cx="660.5201868625462" cy="428.2091126891163" r="22.127329158187376"/>
<circle stroke="darkblue" stroke-width="4" cx="641.1102474516921" cy="385.5072478485912" r="1"/>
<circle stroke="blue" stroke-width="1" fill="none" cx="641.1102474516921" cy="385.5072478485912" r="22.127329158187376"/>
<circle stroke="darkblue" stroke-width="4" cx="701.6692535688364" cy="388.61283945867575" r="1"/>
<circle stroke="blue" stroke-width="1" fill="none" cx="701.6692535688364" cy="388.61283945867575" r="22.127329158187376"/>
<circle stroke="darkblue" stroke-width="4" cx="685.3649057680668" cy="471.6873719383736" r="1"/>
<circle stroke="blue" stroke-width="1" fill="none" cx="685.3649057680668" cy="471.6873719383736" r="22.127329158187376"/>
<circle stroke="darkblue" stroke-width="4" cx="606.1723593071857" cy="450.7246390516698" r="1"/>
<circle stroke="blue" stroke-width="1" fill="none" cx="606.1723593071857" cy="450.7246390516698" r="22.127329158187376"/>
<circle stroke="darkblue" stroke-width="4" cx="735.8307473046107" cy="345.91097461815065" r="1"/>
<circle stroke="blue" stroke-width="1" fill="none" cx="735.8307473046107" cy="345.91097461815065" r="22.127329158187376"/>
<circle stroke="darkblue" stroke-width="4" cx="646.5450316047437" cy="498.0848889781291" r="1"/>
<circle stroke="blue" stroke-width="1" fill="none" cx="646.5450316047437" cy="498.0848889781291" r="22.127329158187376"/>
<circle stroke="darkblue" stroke-width="4" cx="761.4518652772487" cy="408.7991732782621" r="1"/>
<circle stroke="blue" stroke-width="1" fill="none" cx="761.4518652772487" cy="408.7991732782621" r="22.127329158187376"/>
<circle stroke="darkblue" stroke-width="4" cx="754.7360252255652" cy="454.39958780372723" r="1"/>
<circle stroke="blue" stroke-width="1" fill="none" cx="754.7360252255652" cy="454.39958780372723" r="22.127329158187376"/>
<circle stroke="darkblue" stroke-width="4" cx="576.6692553157309" cy="493.4265038921949" r="1"/>
<circle stroke="blue" stroke-width="1" fill="none" cx="576.6692553157309" cy="493.4265038921949" r="22.127329158187376"/>
<circle stroke="darkblue" stroke-width="4" cx="783.9673916398021" cy="343.5817820751835" r="1"/>
<circle stroke="blue" stroke-width="1" fill="none" cx="783.9673916398021" cy="343.5817820751835" r="22.127329158187376"/>
<circle stroke="darkblue" stroke-width="4" cx="818.9052797843086" cy="407.2463798024125" r="1"/>
<circle stroke="blue" stroke-width="1" fill="none" cx="818.9052797843086" cy="407.2463798024125" r="22.127329158187376"/>
<circle stroke="darkblue" stroke-width="4" cx="504.46428648375115" cy="448.39544650870266" r="1"/>
<circle stroke="blue" stroke-width="1" fill="none" cx="504.46428648375115" cy="448.39544650870266" r="22.127329158187376"/>
<circle stroke="darkblue" stroke-width="4" cx="523.8742258946053" cy="502.74327406406326" r="1"/>
<circle stroke="blue" stroke-width="1" fill="none" cx="523.8742258946053" cy="502.74327406406326" r="22.127329158187376"/>
<circle stroke="darkblue" stroke-width="4" cx="801.0740158368411" cy="298.07194984771434" r="1"/>
<circle stroke="blue" stroke-width="1" fill="none" cx="801.0740158368411" cy="298.07194984771434" r="22.127329158187376"/>
<circle stroke="darkblue" stroke-width="4" cx="833.6568341092285" cy="331.15942029323065" r="1"/>
<circle stroke="blue" stroke-width="1" fill="none" cx="833.6568341092285" cy="331.15942029323065" r="22.127329158187376"/>
<circle stroke="darkblue" stroke-width="4" cx="469.3969977183272" cy="519.1770178273648" r="1"/>
<circle stroke="blue" stroke-width="1" fill="none" cx="469.3969977183272" cy="519.1770178273648" r="22.127329158187376"/>
<circle stroke="darkblue" stroke-width="4" cx="852.2903744529652" cy="266.7184281572695" r="1"/>
<circle stroke="blue" stroke-width="1" fill="none" cx="852.2903744529652" cy="266.7184281572695" r="22.127329158187376"/>
<circle stroke="darkblue" stroke-width="4" cx="849.1847828428808" cy="221.68737077377727" r="1"/>
<circle stroke="blue" stroke-width="1" fill="none" cx="849.1847828428808" cy="221.68737077377727" r="22.127329158187376"/>
<circle stroke="darkblue" stroke-width="4" cx="440.7996887565222" cy="559.4202895040056" r="1"/>
<circle stroke="blue" stroke-width="1" fill="none" cx="440.7996887565222" cy="559.4202895040056" r="22.127329158187376"/>
<circle stroke="darkblue" stroke-width="4" cx="830.5512424991441" cy="170.44513482850124" r="1"/>
<circle stroke="blue" stroke-width="1" fill="none" cx="830.5512424991441" cy="170.44513482850124" r="22.127329158187376"/>
<circle stroke="darkblue" stroke-width="4" cx="403.5326080690487" cy="533.0227771226354" r="1"/>
<circle stroke="blue" stroke-width="1" fill="none" cx="403.5326080690487" cy="533.0227771226354" r="22.127329158187376"/>
<circle stroke="darkblue" stroke-width="4" cx="790.178570201586" cy="137.06004481822978" r="1"/>
<circle stroke="blue" stroke-width="1" fill="none" cx="790.178570201586" cy="137.06004481822978" r="22.127329158187376"/>
<circle stroke="darkblue" stroke-width="4" cx="364.7127339057256" cy="499.6376824539787" r="1"/>
<circle stroke="blue" stroke-width="1" fill="none" cx="364.7127339057256" cy="499.6376824539787" r="22.127329158187376"/>
<circle stroke="darkblue" stroke-width="4" cx="360.0543488197914" cy="578.8302289148598" r="1"/>
<circle stroke="blue" stroke-width="1" fill="none" cx="360.0543488197914" cy="578.8302289148598" r="22.127329158187376"/>
<circle stroke="darkblue" stroke-width="4" cx="332.7510367503869" cy="535.3519696656025" r="1"/>
<circle stroke="blue" stroke-width="1" fill="none" cx="332.7510367503869" cy="535.3519696656025" r="22.127329158187376"/>
<circle stroke="darkblue" stroke-width="4" cx="838.3152191951627" cy="86.59420328168592" r="1"/>
<circle stroke="blue" stroke-width="1" fill="none" cx="838.3152191951627" cy="86.59420328168592" r="22.127329158187376"/>
<circle stroke="darkblue" stroke-width="4" cx="362.38354136275854" cy="639.3892350320042" r="1"/>
<circle stroke="blue" stroke-width="1" fill="none" cx="362.38354136275854" cy="639.3892350320042" r="22.127329158187376"/>
<circle stroke="darkblue" stroke-width="4" cx="936.1413059997806" cy="110.66252777847431" r="1"/>
<circle stroke="blue" stroke-width="1" fill="none" cx="936.1413059997806" cy="110.66252777847431" r="22.127329158187376"/>
<circle stroke="darkblue" stroke-width="4" cx="315.7996905034167" cy="619.2029012124178" r="1"/>
<circle stroke="blue" stroke-width="1" fill="none" cx="315.7996905034167" cy="619.2029012124178" r="22.127329158187376"/>
<circle stroke="darkblue" stroke-width="4" cx="870.3286756671911" cy="33.19099373728106" r="1"/>
<circle stroke="blue" stroke-width="1" fill="none" cx="870.3286756671911" cy="33.19099373728106" r="22.127329158187376"/>
<circle stroke="darkblue" stroke-width="4" cx="928.3773293037619" cy="34.899069821585364" r="1"/>
<circle stroke="blue" stroke-width="1" fill="none" cx="928.3773293037619" cy="34.899069821585364" r="22.127329158187376"/>
<circle stroke="darkblue" stroke-width="4" cx="992.818321439723" cy="85.81780887295376" r="1"/>
<circle stroke="blue" stroke-width="1" fill="none" cx="992.818321439723" cy="85.81780887295376" r="22.127329158187376"/>
<circle stroke="darkblue" stroke-width="4" cx="325.11646067528505" cy="778.3643885429123" r="1"/>
<circle stroke="blue" stroke-width="1" fill="none" cx="325.11646067528505" cy="778.3643885429123" r="22.127329158187376"/>
<circle stroke="darkblue" stroke-width="4" cx="1033.1909937372811" cy="49.32712259421245" r="1"/>
<circle stroke="blue" stroke-width="1" fill="none" cx="1033.1909937372811" cy="49.32712259421245" r="22.127329158187376"/>
<circle stroke="darkblue" stroke-width="4" cx="241.26552912846972" cy="858.333334070911" r="1"/>
<circle stroke="blue" stroke-width="1" fill="none" cx="241.26552912846972" cy="858.333334070911" r="22.127329158187376"/>
<circle stroke="darkblue" stroke-width="4" cx="33.19099373728106" cy="965.4761910473972" r="1"/>
<circle stroke="blue" stroke-width="1" fill="none" cx="33.19099373728106" cy="965.4761910473972" r="22.127329158187376"/>
</svg>
