<?xml version="1.0" encoding="utf-8"?>
<svg xmlns="http://www.w3.org/2000/svg" version="1.1" width="1391.9803719458196" height="1391.9803719458196">
<circle stroke="black" stroke-width="2" cx="613.0681900669271" cy="443.50038472147617" r="1"/>
<circle stroke="grey" stroke-width="1" fill="none" cx="613.0681900669271" cy="443.50038472147617" r="130.66012398193988"/>
<circle stroke="black" stroke-width="2" cx="195.9901859729098" cy="811.3195220743022" r="1"/>
<circle stroke="grey" stroke-width="1" fill="none" cx="195.9901859729098" cy="811.3195220743022" r="130.66012398193988"/>
<circle stroke="black" stroke-width="2" cx="393.2688259461971" cy="749.8185276055805" r="1"/>
<circle stroke="grey" stroke-width="1" fill="none" cx="393.2688259461971" cy="749.8185276055805" r="130.66012398193988"/>
<circle stroke="black" stroke-width="2" cx="582.9292548017596" cy="673.9812139777296" r="1"/>
<circle stroke="grey" stroke-width="1" fill="none" cx="582.9292548017596" cy="673.9812139777296" r="130.66012398193988"/>
<circle stroke="black" stroke-width="2" cx="685.6390005952295" cy="371.1400821707002" r="1"/>
<circle stroke="grey" stroke-width="1" fill="none" cx="685.6390005952295" cy="371.1400821707002" r="130.66012398193988"/>
<circle stroke="black" stroke-width="2" cx="705.365049868614" cy="315.9761037151029" r="1"/>
<circle stroke="grey" stroke-width="1" fill="none" cx="705.365049868614" cy="315.9761037151029" r="130.66012398193988"/>
<circle stroke="black" stroke-width="2" cx="523.0578824349241" cy="347.29098009610783" r="1"/>
<circle stroke="grey" stroke-width="1" fill="none" cx="523.0578824349241" cy="347.29098009610783" r="130.66012398193988"/>
<circle stroke="black" stroke-width="2" cx="981.2466427607033" cy="695.8849319841465" r="1"/>
<circle stroke="grey" stroke-width="1" fill="none" cx="981.2466427607033" cy="695.8849319841465" r="130.66012398193988"/>
<circle stroke="black" stroke-width="2" cx="1014.2238062745895" cy="310.53919077829863" r="1"/>
<circle stroke="grey" stroke-width="1" fill="none" cx="1014.2238062745895" cy="310.53919077829863" r="130.66012398193988"/>
<circle stroke="black" stroke-width="2" cx="797.9958188760327" cy="512.7720271192346" r="1"/>
<circle stroke="grey" stroke-width="1" fill="none" cx="797.9958188760327" cy="512.7720271192346" r="130.66012398193988"/>
<circle stroke="black" stroke-width="2" cx="750.2504319042988" cy="416.09805316415253" r="1"/>
<circle stroke="grey" stroke-width="1" fill="none" cx="750.2504319042988" cy="416.09805316415253" r="130.66012398193988"/>
<circle stroke="black" stroke-width="2" cx="300.48199067957785" cy="280.42203220046156" r="1"/>
<circle stroke="grey" stroke-width="1" fill="none" cx="300.48199067957785" cy="280.42203220046156" r="130.66012398193988"/>
<circle stroke="black" stroke-width="2" cx="874.5045803632352" cy="504.85983072255056" r="1"/>
<circle stroke="grey" stroke-width="1" fill="none" cx="874.5045803632352" cy="504.85983072255056" r="130.66012398193988"/>
<circle stroke="black" stroke-width="2" cx="797.1683047574803" cy="629.2627865449108" r="1"/>
<circle stroke="grey" stroke-width="1" fill="none" cx="797.1683047574803" cy="629.2627865449108" r="130.66012398193988"/>
<circle stroke="black" stroke-width="2" cx="983.8562157924537" cy="195.9901859729098" r="1"/>
<circle stroke="grey" stroke-width="1" fill="none" cx="983.8562157924537" cy="195.9901859729098" r="130.66012398193988"/>
<circle stroke="black" stroke-width="2" cx="1051.708744065853" cy="399.2610444099244" r="1"/>
<circle stroke="grey" stroke-width="1" fill="none" cx="1051.708744065853" cy="399.2610444099244" r="130.66012398193988"/>
<circle stroke="black" stroke-width="2" cx="1121.9748551850294" cy="467.033724829779" r="1"/>
<circle stroke="grey" stroke-width="1" fill="none" cx="1121.9748551850294" cy="467.033724829779" r="130.66012398193988"/>
<circle stroke="black" stroke-width="2" cx="1054.176768629956" cy="545.1140372526531" r="1"/>
<circle stroke="grey" stroke-width="1" fill="none" cx="1054.176768629956" cy="545.1140372526531" r="130.66012398193988"/>
<circle stroke="black" stroke-width="2" cx="1107.7510489104397" cy="553.8936716946619" r="1"/>
<circle stroke="grey" stroke-width="1" fill="none" cx="1107.7510489104397" cy="553.8936716946619" r="130.66012398193988"/>
<circle stroke="black" stroke-width="2" cx="1195.9901859729098" cy="624.9836674845023" r="1"/>
<circle stroke="grey" stroke-width="1" fill="none" cx="1195.9901859729098" cy="624.9836674845023" r="130.66012398193988"/>
<circle stroke="darkblue" stroke-width="4" cx="1121.9748551850294" cy="467.033724829779" r="1"/>
<circle stroke="blue" stroke-width="1" fill="none" cx="1121.9748551850294" cy="467.033724829779" r="130.66012398193988"/>
<circle stroke="darkblue" stroke-width="4" cx="981.2466427607033" cy="695.8849319841465" r="1"/>
<circle stroke="blue" stroke-width="1" fill="none" cx="981.2466427607033" cy="695.8849319841465" r="130.66012398193988"/>
<circle stroke="darkblue" stroke-width="4" cx="983.8562157924537" cy="195.9901859729098" r="1"/>
<circle stroke="blue" stroke-width="1" fill="none" cx="983.8562157924537" cy="195.9901859729098" r="130.66012398193988"/>
<circle stroke="darkblue" stroke-width="4" cx="750.2504319042988" cy="416.09805316415253" r="1"/>
<circle stroke="blue" stroke-width="1" fill="none" cx="750.2504319042988" cy="416.09805316415253" r="130.66012398193988"/>
<circle stroke="darkblue" stroke-width="4" cx="582.9292548017596" cy="673.9812139777296" r="1"/>
<circle stroke="blue" stroke-width="1" fill="none" cx="582.9292548017596" cy="673.9812139777296" r="130.66012398193988"/>
<circle stroke="darkblue" stroke-width="4" cx="300.48199067957785" cy="280.42203220046156" r="1"/>
<circle stroke="blue" stroke-width="1" fill="none" cx="300.48199067957785" cy="280.42203220046156" r="130.66012398193988"/>
<circle stroke="darkblue" stroke-width="4" cx="195.9901859729098" cy="811.3195220743022" r="1"/>
<circle stroke="blue" stroke-width="1" fill="none" cx="195.9901859729098" cy="811.3195220743022" r="130.66012398193988"/>
</svg>
